<?xml version="1.0" standalone="no"?>
<!DOCTYPE svg PUBLIC "-//W3C//DTD SVG 20010904//EN"
 "http://www.w3.org/TR/2001/REC-SVG-20010904/DTD/svg10.dtd">
<svg version="1.0" xmlns="http://www.w3.org/2000/svg"
 width="343.000000pt" height="343.000000pt" viewBox="0 0 343.000000 343.000000"
 preserveAspectRatio="xMidYMid meet">
<metadata>
Created by potrace 1.11, written by Peter Selinger 2001-2013
</metadata>
<g transform="translate(0.000000,343.000000) scale(0.100000,-0.100000)"
fill="#000000" stroke="none">
<path d="M523 2542 c-30 -3 -33 -7 -54 -75 -12 -40 -25 -85 -29 -102 -18 -69
-72 -251 -80 -270 -8 -20 -49 -161 -76 -265 -8 -30 -19 -64 -23 -75 -5 -11
-25 -78 -46 -150 -20 -71 -47 -166 -60 -210 -14 -44 -44 -150 -69 -235 -24
-85 -52 -179 -61 -208 -10 -29 -15 -55 -12 -59 9 -9 148 -6 156 4 8 8 15 30
50 158 11 39 29 102 41 142 l21 72 256 -2 256 -2 13 -45 c47 -158 84 -292 84
-304 0 -8 5 -18 11 -21 12 -8 150 -8 157 0 3 2 -7 44 -22 92 -43 142 -56 187
-61 208 -2 11 -20 72 -39 135 -86 286 -130 433 -141 475 -4 17 -16 57 -26 90
-11 33 -21 69 -24 80 -2 11 -18 65 -35 120 -17 55 -32 107 -35 116 -4 19 -36
128 -71 246 -14 44 -30 83 -37 85 -7 2 -26 2 -44 0z m30 -428 c2 -11 6 -26 9
-34 10 -26 59 -201 63 -222 3 -12 9 -35 15 -53 6 -18 12 -41 15 -51 2 -10 9
-35 15 -54 32 -99 76 -271 71 -274 -3 -2 -98 -3 -211 -2 -177 1 -205 3 -202
16 4 16 91 324 122 433 25 85 55 190 71 245 12 43 23 42 32 -4z"/>
<path d="M1353 2542 c-46 -2 -84 -6 -84 -10 -7 -36 -2 -1635 4 -1639 7 -4 631
-7 875 -4 l53 1 -3 72 -3 73 -382 1 c-211 0 -385 3 -388 6 -4 4 -7 308 -5 541
l0 57 314 0 314 0 4 59 c5 100 38 91 -318 91 l-314 0 0 48 c-3 250 0 545 5
550 4 4 178 7 388 7 l382 0 3 73 3 72 -78 0 c-43 0 -215 2 -383 3 -168 1 -342
1 -387 -1z"/>
<path d="M2503 2542 l-53 -3 0 -824 0 -824 33 -3 c17 -2 53 -1 80 0 l47 4 0
348 0 348 83 0 c45 0 89 -2 98 -4 9 -2 47 -53 84 -112 37 -59 83 -129 101
-157 29 -44 233 -367 259 -410 9 -14 26 -17 94 -16 47 1 86 3 88 5 6 6 -17 50
-65 123 -26 39 -80 125 -121 190 -41 65 -99 156 -130 203 -30 47 -67 105 -83
129 -15 24 -27 45 -25 47 1 1 18 5 37 8 96 15 177 56 243 121 31 32 86 124 92
155 2 11 7 25 11 31 12 20 8 302 -6 344 -34 106 -82 171 -169 229 -89 60 -129
67 -403 69 -134 1 -267 1 -295 -1z m533 -160 c55 -16 118 -63 149 -112 35 -56
48 -127 43 -239 -5 -112 -25 -161 -92 -223 -60 -56 -101 -65 -328 -66 l-198
-1 0 323 c0 177 2 325 4 327 10 10 383 2 422 -9z"/>
</g>
</svg>
